<?xml version="1.0" standalone="no"?><!DOCTYPE svg PUBLIC "-//W3C//DTD SVG 1.1//EN" "http://www.w3.org/Graphics/SVG/1.1/DTD/svg11.dtd"><svg t="1714031894442" class="icon" viewBox="0 0 1024 1024" version="1.1" xmlns="http://www.w3.org/2000/svg" p-id="2720" xmlns:xlink="http://www.w3.org/1999/xlink" width="200" height="200"><path d="M341.527 518.931s40.6-8.3 46.4-3.3l20 147.6-33.2 4.1-33.2-148.4z m15.8-81.2h23.2l6.6 57.2h-21.6l-8.2-57.2z m-26.5 5.8l21.6-1.9 6.6 56-18.9 3.1-9.3-57.2z m56.4-69.8s47.3-5 48.9 0l23.2 278.7h-36.1l-36-278.7z m82.9 146.9h45.6v150.1h-33.2l-12.4-150.1z m22.8-76.3h22.8v56.4h-22.8v-56.4z m-27.8 0h19.9v56.4h-19.9v-56.4z m-274.5 113.6l-12.5-228c-7.4 6.6-63 24.9-63 24.9 19 65.5 44.8 338.3 44.8 338.3 130.6 4.2 184.9-53 188.2-66.3 2-7.9 2-16.2 0-24.1-31.4-52.3-157.5-44.8-157.5-44.8z m39.5 98.7l-8.2-64.9 60.3 25.4-52.1 39.5z m533.6-53.9c-31.5-52.2-157.6-44.8-157.6-44.8l-12.5-228c-7.4 6.6-62.9 24.9-62.9 24.9 19 65.5 44.8 338.3 44.8 338.3 130.6 4.2 184.9-53 188.2-66.3 2-8 2-16.2 0-24.1z m-118.2 53.9l-8.2-64.9 60.3 25.4-52.1 39.5z m111.5-137.7s40.6-8.3 46.4-3.3l19.9 147.6-33.2 4.1-33.1-148.4z m15.8-81.2h23.2l6.6 57.2h-21.6l-8.2-57.2z m-26.6 5.8l21.6-1.9 6.6 56-18.9 3.1-9.3-57.2z m56.4-69.8s47.3-5 48.9 0l23.2 278.6h-36.1l-36-278.6z m83 146.9h45.6v150.1h-33.2l-12.4-150.1z m22.8-76.3h22.8v56.4h-22.8v-56.4z m-27.8 0h19.9v56.4h-19.9v-56.4z" fill="#FF6B86" p-id="2721"></path></svg>